<svg width="40" height="40" viewBox="0 0 40 40" fill="none" xmlns="http://www.w3.org/2000/svg">
<mask id="mask0_776_1794" style="mask-type:alpha" maskUnits="userSpaceOnUse" x="0" y="0" width="40" height="40">
<rect width="40" height="40" fill="#D9D9D9"/>
</mask>
<g mask="url(#mask0_776_1794)">
<path d="M8.06021 29.6288V16.323H11.4427V29.6288H8.06021ZM18.4298 29.6288V16.323H21.7885V29.6288H18.4298ZM2.67188 14.1422V10.4676L19.9981 1.03467L37.3398 10.4676V14.1422H2.67188ZM10.5369 10.4534H29.4594L19.9981 5.22175L10.5369 10.4534ZM2.67188 35.4747V31.8022H23.6477C23.7033 32.3291 23.7733 32.9165 23.8577 33.5643C23.9422 34.2123 24.1017 34.8491 24.3365 35.4747H2.67188ZM28.5535 22.293V16.323H31.936V20.5901L28.5535 22.293ZM33.3315 40.2905C31.3415 39.7974 29.6935 38.6527 28.3877 36.8563C27.0822 35.0599 26.4294 33.0644 26.4294 30.8697V26.4863L33.3315 23.043L40.2335 26.4863V30.8697C40.2335 33.0644 39.5808 35.0599 38.2752 36.8563C36.9694 38.6527 35.3215 39.7974 33.3315 40.2905ZM32.3219 35.0238L38.3773 28.9818L36.9927 27.5972L32.3219 32.2638L29.9056 29.848L28.5369 31.223L32.3219 35.0238Z" fill="#1C1B1F"/>
</g>
</svg>
