<svg width="40" height="40" viewBox="0 0 40 40" fill="none" xmlns="http://www.w3.org/2000/svg">
<mask id="mask0_776_1777" style="mask-type:alpha" maskUnits="userSpaceOnUse" x="0" y="0" width="40" height="40">
<rect width="40" height="40" fill="#D9D9D9"/>
</mask>
<g mask="url(#mask0_776_1777)">
<path d="M18.1757 23.4903V19.8428H21.8232V23.4903H18.1757ZM11.509 23.4903V19.8428H15.1565V23.4903H11.509ZM24.8423 23.4903V19.8428H28.4898V23.4903H24.8423ZM18.1757 30.157V26.5095H21.8232V30.157H18.1757ZM11.509 30.157V26.5095H15.1565V30.157H11.509ZM24.8423 30.157V26.5095H28.4898V30.157H24.8423ZM4.33984 37.3261V5.4357H10.1432V2.6582H13.5023V5.4357H26.4965V2.6582H29.8619V5.4357H35.6744V37.3261H4.33984ZM8.01276 33.6532H31.9861V16.3886H8.01276V33.6532ZM8.01276 13.6111H31.9861V9.12404H8.01276V13.6111Z" fill="#1C1B1F"/>
</g>
</svg>
