<svg width="40" height="40" viewBox="0 0 40 40" fill="none" xmlns="http://www.w3.org/2000/svg">
<mask id="mask0_776_1785" style="mask-type:alpha" maskUnits="userSpaceOnUse" x="0" y="0" width="40" height="40">
<rect width="40" height="40" fill="#D9D9D9"/>
</mask>
<g mask="url(#mask0_776_1785)">
<path d="M28.1296 18.4586C28.5435 18.05 28.7504 17.5495 28.7504 16.957C28.7504 16.3645 28.5442 15.8639 28.1317 15.4553C27.7192 15.047 27.2186 14.8428 26.63 14.8428C26.0414 14.8428 25.5403 15.047 25.1267 15.4553C24.7131 15.8639 24.5063 16.3645 24.5063 16.957C24.5063 17.5495 24.7125 18.05 25.125 18.4586C25.5375 18.867 26.0381 19.0711 26.6267 19.0711C27.215 19.0711 27.716 18.867 28.1296 18.4586ZM12.4704 15.4099H21.6362V12.012H12.4704V15.4099ZM6.44875 35.6595C5.47292 32.3828 4.50833 29.1156 3.555 25.8578C2.60167 22.6 2.125 19.2585 2.125 15.8332C2.125 13.0996 3.07889 10.776 4.98667 8.86237C6.89444 6.94848 9.21653 5.99154 11.9529 5.99154H20.9363C21.7971 4.93598 22.8338 4.11654 24.0463 3.5332C25.2588 2.94987 26.549 2.6582 27.9171 2.6582C28.7807 2.6582 29.5218 2.96362 30.1404 3.57445C30.759 4.18529 31.0683 4.92251 31.0683 5.78612C31.0683 5.98418 31.0475 6.17445 31.0058 6.35695C30.9642 6.53918 30.9156 6.71807 30.86 6.89362C30.77 7.15195 30.6842 7.41251 30.6025 7.67529C30.5211 7.93779 30.4526 8.2114 30.3971 8.49612L33.7254 11.8249H37.8688V24.6195L32.9013 26.1924L30.0783 35.6595H19.7887V32.3261H16.7458V35.6595H6.44875ZM9.21875 31.9865H13.2067V28.6532H23.3046V31.9865H27.2963L29.9013 23.3257L34.1804 21.9403V15.5132H32.18L26.6804 10.0132C26.6988 9.3807 26.7665 8.76126 26.8838 8.15487C27.001 7.5482 27.1435 6.93473 27.3113 6.31445C26.3651 6.59473 25.495 7.00723 24.7008 7.55195C23.9069 8.0964 23.2812 8.8057 22.8237 9.67987H11.9513C10.2365 9.67987 8.78222 10.2767 7.58833 11.4703C6.39472 12.6642 5.79792 14.1185 5.79792 15.8332C5.79792 18.6146 6.18361 21.3311 6.955 23.9828C7.72639 26.6342 8.48097 29.3021 9.21875 31.9865Z" fill="#1C1B1F"/>
</g>
</svg>
