<svg width="40" height="40" viewBox="0 0 40 40" fill="none" xmlns="http://www.w3.org/2000/svg">
<mask id="mask0_776_1810" style="mask-type:alpha" maskUnits="userSpaceOnUse" x="0" y="0" width="40" height="40">
<rect width="40" height="40" fill="#D9D9D9"/>
</mask>
<g mask="url(#mask0_776_1810)">
<path d="M2.59375 37.868L11.3546 13.3688L27.1838 29.0872L2.59375 37.868ZM8.72417 31.7451L20.5075 27.528L12.9137 19.9063L8.72417 31.7451ZM24.3154 21.5684L22.4971 19.7501L35.5988 6.64883L40.0021 11.0876L38.16 12.9059L35.5908 10.3088L24.3154 21.5684ZM17.0721 14.4597L15.2537 12.618L18.1838 9.67216L15.1558 6.64425L16.99 4.82633L21.8596 9.67216L17.0721 14.4597ZM20.7471 18.0001L18.9054 16.1817L26.7117 8.3755L22.2808 3.94508L24.1229 2.11133L30.3717 8.3755L20.7471 18.0001ZM27.955 25.2434L26.1208 23.4017L31.95 17.5884L37.9213 23.583L36.0792 25.4247L31.9267 21.2717L27.955 25.2434Z" fill="#1C1B1F"/>
</g>
</svg>
